<svg width="863" height="527" viewBox="0 0 863 527" fill="none" xmlns="http://www.w3.org/2000/svg">
<path opacity="0.1" d="M862 353.5C862 590.704 669.261 783 431.5 783C193.739 783 0.999969 590.704 0.999969 353.5C0.999969 116.296 193.739 -76 431.5 -76C669.261 -76 862 116.296 862 353.5Z" stroke="#0BFCF5" stroke-width="2"/>
<path opacity="0.3" d="M761.705 354.663C761.705 535.962 614.391 682.937 432.666 682.937C250.94 682.937 103.626 535.962 103.626 354.663C103.626 173.364 250.94 26.3887 432.666 26.3887C614.391 26.3887 761.705 173.364 761.705 354.663Z" stroke="#0BFCF5" stroke-width="2"/>
<path opacity="0.6" d="M638.086 353.498C638.086 467.325 545.596 559.603 431.5 559.603C317.403 559.603 224.913 467.325 224.913 353.498C224.913 239.671 317.403 147.393 431.5 147.393C545.596 147.393 638.086 239.671 638.086 353.498Z" stroke="#0BFCF5" stroke-width="2"/>
<path d="M516.8 354.663C516.8 401.018 479.134 438.6 432.666 438.6C386.198 438.6 348.532 401.018 348.532 354.663C348.532 308.308 386.198 270.727 432.666 270.727C479.134 270.727 516.8 308.308 516.8 354.663Z" stroke="#0BFCF5" stroke-width="2"/>
</svg>
